<svg id="Project" xmlns="http://www.w3.org/2000/svg" width="16" height="16" viewBox="0 0 16 16">
  <path id="Project-2" data-name="Project" d="M9.665,2.079a.75.75,0,0,1,.671,0L17.585,5.7a.75.75,0,0,1,0,1.342l-7.25,3.625a.75.75,0,0,1-.671,0L2.415,7.046a.75.75,0,0,1,0-1.342Zm-5.238,4.3L10,9.161l5.573-2.786L10,3.589ZM2.079,13.29a.75.75,0,0,1,1.006-.335L10,16.412l6.915-3.457a.75.75,0,0,1,.671,1.342l-7.25,3.625a.75.75,0,0,1-.671,0L2.415,14.3A.75.75,0,0,1,2.079,13.29Zm1.006-3.96a.75.75,0,0,0-.671,1.342L9.665,14.3a.75.75,0,0,0,.671,0l7.25-3.625a.75.75,0,0,0-.671-1.342L10,12.787Z" transform="translate(-2 -2)" fill="#7a7a7a" fill-rule="evenodd"/>
</svg>
