<svg id="Shopping" xmlns="http://www.w3.org/2000/svg" width="14.552" height="16.001" viewBox="0 0 14.552 16.001">
  <path id="Shopping-2" data-name="Shopping" d="M5.046,2.3a.75.75,0,0,1,.6-.3h8.7a.75.75,0,0,1,.6.3l2.175,2.9a.75.75,0,0,1,.15.45V15.8a2.2,2.2,0,0,1-2.2,2.2H4.921a2.2,2.2,0,0,1-2.2-2.2V5.679q0-.015,0-.029a.747.747,0,0,1,.172-.478ZM4.221,15.8V6.4H15.771v9.4a.7.7,0,0,1-.7.7H4.921a.7.7,0,0,1-.7-.7ZM13.971,3.5l1.05,1.4H4.971l1.05-1.4ZM7.845,8.55a.75.75,0,1,0-1.5,0,3.65,3.65,0,0,0,7.3,0,.75.75,0,1,0-1.5,0,2.15,2.15,0,1,1-4.3,0Z" transform="translate(-2.72 -2)" fill="#7a7a7a" fill-rule="evenodd"/>
</svg>
