<svg id="Tasks" xmlns="http://www.w3.org/2000/svg" width="16" height="16" viewBox="0 0 16 16">
  <path id="Tasks-2" data-name="Tasks" d="M6.75,2A4.75,4.75,0,0,0,2,6.75v6.5A4.75,4.75,0,0,0,6.75,18h6.5A4.75,4.75,0,0,0,18,13.25V6.75A4.75,4.75,0,0,0,13.25,2ZM3.5,6.75A3.25,3.25,0,0,1,6.75,3.5h6.5A3.25,3.25,0,0,1,16.5,6.75v6.5a3.25,3.25,0,0,1-3.25,3.25H6.75A3.25,3.25,0,0,1,3.5,13.25ZM13.586,8.742a.75.75,0,0,0-1.009-1.11L9.094,10.8,7.786,9.61a.75.75,0,1,0-1.009,1.11l1.812,1.648a.75.75,0,0,0,1.009,0Z" transform="translate(-2 -2)" fill="#7a7a7a" fill-rule="evenodd"/>
</svg>
